<svg width="40" height="40" viewBox="0 0 40 40" fill="none" xmlns="http://www.w3.org/2000/svg">
<circle cx="20" cy="20" r="20" fill="black" fill-opacity="0.9"/>
<path d="M20.0005 16.25C17.934 16.25 16.2503 17.9336 16.2503 20C16.2503 22.0664 17.934 23.75 20.0005 23.75C22.067 23.75 23.7507 22.0664 23.7507 20C23.7507 17.9336 22.067 16.25 20.0005 16.25ZM29.626 19.3945L25.9266 17.5469L27.2352 13.625C27.411 13.0938 26.9071 12.5898 26.3797 12.7695L22.4576 14.0781L20.606 10.375C20.356 9.875 19.645 9.875 19.395 10.375L17.5472 14.0742L13.6213 12.7656C13.09 12.5898 12.5861 13.0937 12.7658 13.6211L14.0744 17.543L10.375 19.3945C9.87499 19.6445 9.87499 20.3555 10.375 20.6055L14.0744 22.4531L12.7658 26.3789C12.59 26.9102 13.0939 27.4141 13.6213 27.2344L17.5433 25.9258L19.3911 29.625C19.6411 30.125 20.3521 30.125 20.6021 29.625L22.4498 25.9258L26.3719 27.2344C26.9032 27.4102 27.4071 26.9062 27.2274 26.3789L25.9187 22.457L29.6181 20.6094C30.126 20.3555 30.126 19.6445 29.626 19.3945V19.3945ZM23.5358 23.5352C21.5865 25.4844 18.4145 25.4844 16.4652 23.5352C14.5158 21.5859 14.5158 18.4141 16.4652 16.4648C18.4145 14.5156 21.5865 14.5156 23.5358 16.4648C25.4851 18.4141 25.4851 21.5859 23.5358 23.5352Z" fill="#CCCCCC"/>
</svg>
