<svg width="80" height="40" viewBox="0 0 80 40" fill="none" xmlns="http://www.w3.org/2000/svg">
<rect width="80" height="40" rx="20" fill="black"/>
<rect width="80" height="40" rx="20" fill="white" fill-opacity="0.2"/>
<path d="M60.0005 16.25C57.934 16.25 56.2503 17.9336 56.2503 20C56.2503 22.0664 57.934 23.75 60.0005 23.75C62.067 23.75 63.7507 22.0664 63.7507 20C63.7507 17.9336 62.067 16.25 60.0005 16.25ZM69.626 19.3945L65.9266 17.5469L67.2352 13.625C67.411 13.0938 66.9071 12.5898 66.3797 12.7695L62.4576 14.0781L60.606 10.375C60.356 9.875 59.645 9.875 59.395 10.375L57.5472 14.0742L53.6213 12.7656C53.09 12.5898 52.5861 13.0937 52.7658 13.6211L54.0744 17.543L50.375 19.3945C49.875 19.6445 49.875 20.3555 50.375 20.6055L54.0744 22.4531L52.7658 26.3789C52.59 26.9102 53.0939 27.4141 53.6213 27.2344L57.5433 25.9258L59.3911 29.625C59.6411 30.125 60.3521 30.125 60.6021 29.625L62.4498 25.9258L66.3719 27.2344C66.9032 27.4102 67.4071 26.9062 67.2274 26.3789L65.9187 22.457L69.6181 20.6094C70.126 20.3555 70.126 19.6445 69.626 19.3945ZM63.5358 23.5352C61.5865 25.4844 58.4145 25.4844 56.4652 23.5352C54.5158 21.5859 54.5158 18.4141 56.4652 16.4648C58.4145 14.5156 61.5865 14.5156 63.5358 16.4648C65.4851 18.4141 65.4851 21.5859 63.5358 23.5352Z" fill="#CCCCCC" fill-opacity="0.5"/>
</svg>
