<svg width="200" height="200" viewBox="0 0 200 200" fill="none" xmlns="http://www.w3.org/2000/svg">
<path d="M187.167 49.9999C180.75 52.9166 173.833 54.8333 166.667 55.7499C174 51.3333 179.667 44.3333 182.333 35.9166C175.417 40.0833 167.75 42.9999 159.667 44.6666C153.083 37.4999 143.833 33.3333 133.333 33.3333C113.75 33.3333 97.75 49.3333 97.75 69.0833C97.75 71.9166 98.0833 74.6666 98.6667 77.2499C69 75.7499 42.5833 61.4999 25 39.9166C21.9167 45.1666 20.1667 51.3333 20.1667 57.8333C20.1667 70.2499 26.4167 81.2499 36.0833 87.4999C30.1667 87.4999 24.6667 85.8333 19.8333 83.3333V83.5832C19.8333 100.917 32.1667 115.417 48.5 118.667C43.2561 120.102 37.7508 120.301 32.4167 119.25C34.6801 126.354 39.1128 132.57 45.0918 137.024C51.0708 141.479 58.2954 143.947 65.75 144.083C53.1136 154.087 37.45 159.494 21.3333 159.417C18.5 159.417 15.6667 159.25 12.8333 158.917C28.6667 169.083 47.5 175 67.6667 175C133.333 175 169.417 120.5 169.417 73.2499C169.417 71.6666 169.417 70.1666 169.333 68.5832C176.333 63.5832 182.333 57.2499 187.167 49.9999V49.9999Z" fill="#7268C6"/>
</svg>
