<svg width="200" height="200" viewBox="0 0 200 200" fill="none" xmlns="http://www.w3.org/2000/svg">
<path d="M100 16.6667C89.0565 16.6667 78.2202 18.8222 68.1097 23.0101C57.9993 27.198 48.8127 33.3363 41.0744 41.0745C25.4464 56.7025 16.6667 77.8987 16.6667 100C16.6667 136.833 40.5833 168.083 73.6667 179.167C77.8333 179.833 79.1667 177.25 79.1667 175V160.917C56.0833 165.917 51.1667 149.75 51.1667 149.75C47.3333 140.083 41.9167 137.5 41.9167 137.5C34.3333 132.333 42.5 132.5 42.5 132.5C50.8333 133.083 55.25 141.083 55.25 141.083C62.5 153.75 74.75 150 79.5 148C80.25 142.583 82.4167 138.917 84.75 136.833C66.25 134.75 46.8333 127.583 46.8333 95.8334C46.8333 86.5834 50 79.1667 55.4167 73.2501C54.5833 71.1667 51.6667 62.5001 56.25 51.2501C56.25 51.2501 63.25 49.0001 79.1667 59.7501C85.75 57.9167 92.9167 57.0001 100 57.0001C107.083 57.0001 114.25 57.9167 120.833 59.7501C136.75 49.0001 143.75 51.2501 143.75 51.2501C148.333 62.5001 145.417 71.1667 144.583 73.2501C150 79.1667 153.167 86.5834 153.167 95.8334C153.167 127.667 133.667 134.667 115.083 136.75C118.083 139.333 120.833 144.417 120.833 152.167V175C120.833 177.25 122.167 179.917 126.417 179.167C159.5 168 183.333 136.833 183.333 100C183.333 89.0566 181.178 78.2203 176.99 68.1098C172.802 57.9993 166.664 48.8127 158.926 41.0745C151.187 33.3363 142.001 27.198 131.89 23.0101C121.78 18.8222 110.944 16.6667 100 16.6667V16.6667Z" fill="#7C72DC"/>
</svg>
