<svg width="200" height="200" viewBox="0 0 200 200" fill="none" xmlns="http://www.w3.org/2000/svg">
<path d="M166.667 66.6666L100 108.333L33.3333 66.6666V49.9999L100 91.6666L166.667 49.9999V66.6666ZM166.667 33.3333H33.3333C24.0833 33.3333 16.6667 40.7499 16.6667 49.9999V150C16.6667 154.42 18.4226 158.659 21.5482 161.785C24.6738 164.911 28.913 166.667 33.3333 166.667H166.667C171.087 166.667 175.326 164.911 178.452 161.785C181.577 158.659 183.333 154.42 183.333 150V49.9999C183.333 45.5796 181.577 41.3404 178.452 38.2148C175.326 35.0892 171.087 33.3333 166.667 33.3333V33.3333Z" fill="#F0B05D"/>
</svg>
