<svg width="200" height="200" viewBox="0 0 200 200" fill="none" xmlns="http://www.w3.org/2000/svg">
<path d="M55.1667 89.9167C67.1667 113.5 86.5 132.833 110.083 144.833L128.417 126.5C130.75 124.167 134 123.5 136.917 124.417C146.25 127.5 156.25 129.167 166.667 129.167C168.877 129.167 170.996 130.045 172.559 131.607C174.122 133.17 175 135.29 175 137.5V166.667C175 168.877 174.122 170.996 172.559 172.559C170.996 174.122 168.877 175 166.667 175C129.094 175 93.0609 160.074 66.4932 133.507C39.9256 106.939 25 70.9057 25 33.3333C25 31.1232 25.878 29.0036 27.4408 27.4408C29.0036 25.878 31.1232 25 33.3333 25H62.5C64.7101 25 66.8298 25.878 68.3926 27.4408C69.9554 29.0036 70.8333 31.1232 70.8333 33.3333C70.8333 43.75 72.5 53.75 75.5833 63.0833C76.5 66 75.8333 69.25 73.5 71.5833L55.1667 89.9167Z" fill="#F0B05D"/>
</svg>
