<?xml version="1.0" standalone="no"?>
<svg xmlns:xlink="http://www.w3.org/1999/xlink" id="wave" style="transform:rotate(0deg); transition: 0.3s" viewBox="0 0 1440 140" version="1.1" xmlns="http://www.w3.org/2000/svg"><defs><linearGradient id="sw-gradient-0" x1="0" x2="0" y1="1" y2="0"><stop stop-color="rgba(255, 255, 255, 1)" offset="0%"/><stop stop-color="rgba(255, 255, 255, 1)" offset="100%"/></linearGradient></defs><path style="transform:translate(0, 0px); opacity:1" fill="url(#sw-gradient-0)" d="M0,56L26.7,63C53.3,70,107,84,160,74.7C213.3,65,267,33,320,18.7C373.3,5,427,9,480,18.7C533.3,28,587,42,640,56C693.3,70,747,84,800,74.7C853.3,65,907,33,960,16.3C1013.3,0,1067,0,1120,14C1173.3,28,1227,56,1280,67.7C1333.3,79,1387,75,1440,63C1493.3,51,1547,33,1600,37.3C1653.3,42,1707,70,1760,86.3C1813.3,103,1867,107,1920,105C1973.3,103,2027,93,2080,81.7C2133.3,70,2187,56,2240,63C2293.3,70,2347,98,2400,100.3C2453.3,103,2507,79,2560,74.7C2613.3,70,2667,84,2720,88.7C2773.3,93,2827,89,2880,93.3C2933.3,98,2987,112,3040,114.3C3093.3,117,3147,107,3200,100.3C3253.3,93,3307,89,3360,91C3413.3,93,3467,103,3520,107.3C3573.3,112,3627,112,3680,105C3733.3,98,3787,84,3813,77L3840,70L3840,140L3813.3,140C3786.7,140,3733,140,3680,140C3626.7,140,3573,140,3520,140C3466.7,140,3413,140,3360,140C3306.7,140,3253,140,3200,140C3146.7,140,3093,140,3040,140C2986.7,140,2933,140,2880,140C2826.7,140,2773,140,2720,140C2666.7,140,2613,140,2560,140C2506.7,140,2453,140,2400,140C2346.7,140,2293,140,2240,140C2186.7,140,2133,140,2080,140C2026.7,140,1973,140,1920,140C1866.7,140,1813,140,1760,140C1706.7,140,1653,140,1600,140C1546.7,140,1493,140,1440,140C1386.7,140,1333,140,1280,140C1226.7,140,1173,140,1120,140C1066.7,140,1013,140,960,140C906.7,140,853,140,800,140C746.7,140,693,140,640,140C586.7,140,533,140,480,140C426.7,140,373,140,320,140C266.7,140,213,140,160,140C106.7,140,53,140,27,140L0,140Z"/></svg>